<svg width="171" height="24" viewBox="0 0 171 24" fill="none" xmlns="http://www.w3.org/2000/svg">
<path d="M4.07955 11.4318V19H0.448864V1.54545H3.97727V8.21875H4.13068C4.42614 7.44602 4.90341 6.84091 5.5625 6.40341C6.22159 5.96023 7.0483 5.73864 8.04261 5.73864C8.9517 5.73864 9.74432 5.9375 10.4205 6.33523C11.1023 6.72727 11.6307 7.29261 12.0057 8.03125C12.3864 8.7642 12.5739 9.64205 12.5682 10.6648V19H8.9375V11.3125C8.94318 10.5057 8.73864 9.87784 8.32386 9.42898C7.91477 8.98011 7.34091 8.75568 6.60227 8.75568C6.10795 8.75568 5.67045 8.8608 5.28977 9.07102C4.91477 9.28125 4.61932 9.58807 4.40341 9.99148C4.19318 10.3892 4.08523 10.8693 4.07955 11.4318ZM15.4254 19V5.90909H18.9453V8.19318H19.0817C19.3203 7.38068 19.7209 6.76705 20.2834 6.35227C20.8459 5.93182 21.4936 5.72159 22.2266 5.72159C22.4084 5.72159 22.6044 5.73295 22.8146 5.75568C23.0249 5.77841 23.2095 5.80966 23.3686 5.84943V9.07102C23.1982 9.01989 22.9624 8.97443 22.6612 8.93466C22.3601 8.89489 22.0845 8.875 21.8345 8.875C21.3004 8.875 20.8232 8.99148 20.4027 9.22443C19.9879 9.4517 19.6584 9.76989 19.4141 10.179C19.1754 10.5881 19.0561 11.0597 19.0561 11.5938V19H15.4254ZM33.6406 13.4261V5.90909H37.2713V19H33.7855V16.6222H33.6491C33.3537 17.3892 32.8622 18.0057 32.1747 18.4716C31.4929 18.9375 30.6605 19.1705 29.6776 19.1705C28.8026 19.1705 28.0327 18.9716 27.3679 18.5739C26.7031 18.1761 26.1832 17.6108 25.8082 16.8778C25.4389 16.1449 25.2514 15.267 25.2457 14.2443V5.90909H28.8764V13.5966C28.8821 14.3693 29.0895 14.9801 29.4986 15.429C29.9077 15.8778 30.456 16.1023 31.1435 16.1023C31.581 16.1023 31.9901 16.0028 32.3707 15.804C32.7514 15.5994 33.0582 15.2983 33.2912 14.9006C33.5298 14.5028 33.6463 14.0114 33.6406 13.4261ZM47.1385 5.90909V8.63636H39.255V5.90909H47.1385ZM41.0447 2.77273H44.6754V14.9773C44.6754 15.3125 44.7266 15.5739 44.8288 15.7614C44.9311 15.9432 45.0732 16.071 45.255 16.1449C45.4425 16.2187 45.6584 16.2557 45.9027 16.2557C46.0732 16.2557 46.2436 16.2415 46.4141 16.2131C46.5845 16.179 46.7152 16.1534 46.8061 16.1364L47.3771 18.8381C47.1953 18.8949 46.9396 18.9602 46.6101 19.0341C46.2805 19.1136 45.88 19.1619 45.4084 19.179C44.5334 19.2131 43.7663 19.0966 43.1072 18.8295C42.4538 18.5625 41.9453 18.1477 41.5817 17.5852C41.218 17.0227 41.0391 16.3125 41.0447 15.4545V2.77273ZM57.8984 13.4261V5.90909H61.5291V19H58.0433V16.6222H57.907C57.6115 17.3892 57.12 18.0057 56.4325 18.4716C55.7507 18.9375 54.9183 19.1705 53.9354 19.1705C53.0604 19.1705 52.2905 18.9716 51.6257 18.5739C50.9609 18.1761 50.4411 17.6108 50.0661 16.8778C49.6967 16.1449 49.5092 15.267 49.5036 14.2443V5.90909H53.1342V13.5966C53.1399 14.3693 53.3473 14.9801 53.7564 15.429C54.1655 15.8778 54.7138 16.1023 55.4013 16.1023C55.8388 16.1023 56.2479 16.0028 56.6286 15.804C57.0092 15.5994 57.3161 15.2983 57.549 14.9006C57.7876 14.5028 57.9041 14.0114 57.8984 13.4261ZM64.4332 5.90909H68.0639V19.6477C68.0639 20.6591 67.8651 21.4773 67.4673 22.1023C67.0696 22.7273 66.4986 23.1847 65.7543 23.4744C65.0156 23.7642 64.1321 23.9091 63.1037 23.9091C62.9787 23.9091 62.8594 23.9063 62.7457 23.9006C62.6264 23.9006 62.5014 23.8977 62.3707 23.892V21.054C62.4673 21.0597 62.5526 21.0625 62.6264 21.0625C62.6946 21.0682 62.7685 21.071 62.848 21.071C63.4332 21.071 63.8423 20.946 64.0753 20.696C64.3139 20.4517 64.4332 20.0824 64.4332 19.5881V5.90909ZM66.2401 4.22159C65.706 4.22159 65.2457 4.04261 64.8594 3.68466C64.473 3.32102 64.2798 2.88636 64.2798 2.38068C64.2798 1.88068 64.473 1.4517 64.8594 1.09375C65.2457 0.730113 65.706 0.548295 66.2401 0.548295C66.7855 0.548295 67.2486 0.730113 67.6293 1.09375C68.0156 1.4517 68.2088 1.88068 68.2088 2.38068C68.2088 2.88636 68.0156 3.32102 67.6293 3.68466C67.2486 4.04261 66.7855 4.22159 66.2401 4.22159ZM74.7053 19.2472C73.87 19.2472 73.1257 19.1023 72.4723 18.8125C71.8189 18.517 71.3018 18.0824 70.9212 17.5085C70.5462 16.929 70.3587 16.2074 70.3587 15.3438C70.3587 14.6165 70.4922 14.0057 70.7592 13.5114C71.0263 13.017 71.3899 12.6193 71.8501 12.3182C72.3104 12.017 72.8331 11.7898 73.4183 11.6364C74.0092 11.483 74.6286 11.375 75.2763 11.3125C76.0376 11.233 76.6513 11.1591 77.1172 11.0909C77.5831 11.017 77.9212 10.9091 78.1314 10.767C78.3416 10.625 78.4467 10.4148 78.4467 10.1364V10.0852C78.4467 9.54545 78.2763 9.12784 77.9354 8.83239C77.6001 8.53693 77.1229 8.3892 76.5036 8.3892C75.8501 8.3892 75.3303 8.53409 74.9439 8.82386C74.5575 9.10795 74.3018 9.46591 74.1768 9.89773L70.8189 9.625C70.9893 8.82955 71.3246 8.14205 71.8246 7.5625C72.3246 6.97727 72.9695 6.52841 73.7592 6.21591C74.5547 5.89773 75.4751 5.73864 76.5206 5.73864C77.2479 5.73864 77.9439 5.82386 78.6087 5.99432C79.2791 6.16477 79.8729 6.42898 80.3899 6.78693C80.9126 7.14489 81.3246 7.60511 81.6257 8.16761C81.9268 8.72443 82.0774 9.39205 82.0774 10.1705V19H78.6342V17.1847H78.532C78.3217 17.5938 78.0405 17.9545 77.6882 18.267C77.3359 18.5739 76.9126 18.8153 76.4183 18.9915C75.924 19.1619 75.353 19.2472 74.7053 19.2472ZM75.745 16.7415C76.2791 16.7415 76.7507 16.6364 77.1598 16.4261C77.5689 16.2102 77.8899 15.9205 78.1229 15.5568C78.3558 15.1932 78.4723 14.7812 78.4723 14.321V12.9318C78.3587 13.0057 78.2024 13.0739 78.0036 13.1364C77.8104 13.1932 77.5916 13.2472 77.3473 13.2983C77.103 13.3437 76.8587 13.3864 76.6143 13.4261C76.37 13.4602 76.1484 13.4915 75.9496 13.5199C75.5234 13.5824 75.1513 13.6818 74.8331 13.8182C74.5149 13.9545 74.2678 14.1392 74.0916 14.3722C73.9155 14.5994 73.8274 14.8835 73.8274 15.2244C73.8274 15.7188 74.0064 16.0966 74.3643 16.358C74.728 16.6136 75.1882 16.7415 75.745 16.7415Z" fill="white"/>
<path d="M87.5341 23.0909V8.09091H89.1534V9.82386H89.3523C89.4754 9.63447 89.6458 9.39299 89.8636 9.09943C90.0862 8.80114 90.4034 8.53598 90.8153 8.30398C91.232 8.06723 91.7955 7.94886 92.5057 7.94886C93.4242 7.94886 94.2339 8.1785 94.9347 8.63778C95.6354 9.09706 96.1823 9.74811 96.5753 10.5909C96.9683 11.4337 97.1648 12.428 97.1648 13.5739C97.1648 14.7292 96.9683 15.7306 96.5753 16.5781C96.1823 17.4209 95.6378 18.0743 94.9418 18.5384C94.2457 18.9976 93.4432 19.2273 92.5341 19.2273C91.8333 19.2273 91.2723 19.1113 90.8509 18.8793C90.4295 18.6425 90.1051 18.375 89.8778 18.0767C89.6506 17.7737 89.4754 17.5227 89.3523 17.3239H89.2102V23.0909H87.5341ZM89.1818 13.5455C89.1818 14.3693 89.3026 15.0961 89.544 15.7259C89.7855 16.3509 90.1383 16.8409 90.6023 17.196C91.0663 17.5464 91.6345 17.7216 92.3068 17.7216C93.0076 17.7216 93.5923 17.5369 94.0611 17.1676C94.5346 16.7936 94.8897 16.2917 95.1264 15.6619C95.3679 15.0275 95.4886 14.322 95.4886 13.5455C95.4886 12.7784 95.3703 12.0871 95.1335 11.4716C94.9015 10.8513 94.5488 10.3613 94.0753 10.0014C93.6065 9.63684 93.017 9.45455 92.3068 9.45455C91.625 9.45455 91.0521 9.62737 90.5881 9.97301C90.1241 10.3139 89.7737 10.7921 89.5369 11.4077C89.3002 12.0185 89.1818 12.7311 89.1818 13.5455ZM102.932 19.2557C102.241 19.2557 101.613 19.1255 101.05 18.8651C100.486 18.5999 100.039 18.2188 99.7074 17.7216C99.3759 17.2197 99.2102 16.6136 99.2102 15.9034C99.2102 15.2784 99.3333 14.7718 99.5795 14.3835C99.8258 13.9905 100.155 13.6828 100.567 13.4602C100.979 13.2377 101.433 13.072 101.93 12.9631C102.432 12.8494 102.937 12.7595 103.443 12.6932C104.106 12.608 104.643 12.544 105.055 12.5014C105.472 12.4541 105.775 12.3759 105.964 12.267C106.159 12.1581 106.256 11.9687 106.256 11.6989V11.642C106.256 10.9413 106.064 10.3968 105.68 10.0085C105.302 9.62027 104.726 9.42614 103.955 9.42614C103.154 9.42614 102.527 9.60133 102.072 9.9517C101.618 10.3021 101.298 10.6761 101.114 11.0739L99.5227 10.5057C99.8068 9.8428 100.186 9.3267 100.659 8.95739C101.137 8.58333 101.658 8.32292 102.222 8.17614C102.79 8.02462 103.348 7.94886 103.898 7.94886C104.248 7.94886 104.651 7.99148 105.105 8.0767C105.564 8.1572 106.007 8.32528 106.433 8.58097C106.864 8.83665 107.222 9.22254 107.506 9.73864C107.79 10.2547 107.932 10.946 107.932 11.8125V19H106.256V17.5227H106.17C106.057 17.7595 105.867 18.0128 105.602 18.2827C105.337 18.5526 104.984 18.7822 104.544 18.9716C104.104 19.161 103.566 19.2557 102.932 19.2557ZM103.188 17.75C103.85 17.75 104.409 17.6198 104.864 17.3594C105.323 17.099 105.669 16.7628 105.901 16.3509C106.137 15.9389 106.256 15.5057 106.256 15.0511V13.517C106.185 13.6023 106.028 13.6804 105.787 13.7514C105.55 13.8177 105.276 13.8769 104.963 13.929C104.655 13.9763 104.355 14.0189 104.061 14.0568C103.772 14.09 103.538 14.1184 103.358 14.142C102.922 14.1989 102.515 14.2912 102.136 14.419C101.762 14.5421 101.459 14.7292 101.227 14.9801C101 15.2263 100.886 15.5625 100.886 15.9886C100.886 16.571 101.102 17.0114 101.533 17.3097C101.968 17.6032 102.52 17.75 103.188 17.75ZM115.735 8.09091V9.51136H110.082V8.09091H115.735ZM111.73 5.47727H113.406V15.875C113.406 16.3485 113.475 16.7036 113.612 16.9403C113.754 17.1723 113.934 17.3286 114.152 17.4091C114.374 17.4848 114.609 17.5227 114.855 17.5227C115.039 17.5227 115.191 17.5133 115.309 17.4943C115.428 17.4706 115.522 17.4517 115.593 17.4375L115.934 18.9432C115.821 18.9858 115.662 19.0284 115.458 19.071C115.255 19.1184 114.997 19.142 114.684 19.142C114.211 19.142 113.747 19.0402 113.292 18.8366C112.842 18.633 112.468 18.3229 112.17 17.9062C111.877 17.4896 111.73 16.964 111.73 16.3295V5.47727ZM119.933 12.4375V19H118.257V8.09091H119.876V9.79545H120.018C120.274 9.24148 120.662 8.7964 121.183 8.46023C121.704 8.11932 122.376 7.94886 123.2 7.94886C123.939 7.94886 124.585 8.10038 125.139 8.40341C125.693 8.7017 126.124 9.15625 126.431 9.76705C126.739 10.3731 126.893 11.1402 126.893 12.0682V19H125.217V12.1818C125.217 11.3248 124.994 10.6572 124.549 10.179C124.104 9.69602 123.493 9.45455 122.717 9.45455C122.182 9.45455 121.704 9.57055 121.282 9.80256C120.866 10.0346 120.537 10.3731 120.295 10.8182C120.054 11.2633 119.933 11.803 119.933 12.4375ZM134.53 19.2273C133.479 19.2273 132.572 18.9953 131.81 18.5312C131.052 18.0625 130.467 17.4091 130.055 16.571C129.648 15.7282 129.445 14.7481 129.445 13.6307C129.445 12.5133 129.648 11.5284 130.055 10.6761C130.467 9.81913 131.04 9.15152 131.774 8.6733C132.513 8.19034 133.375 7.94886 134.359 7.94886C134.928 7.94886 135.489 8.04356 136.043 8.23295C136.597 8.42235 137.101 8.73011 137.555 9.15625C138.01 9.57765 138.372 10.1364 138.642 10.8324C138.912 11.5284 139.047 12.3854 139.047 13.4034V14.1136H130.638V12.6648H137.342C137.342 12.0492 137.219 11.5 136.973 11.017C136.732 10.5341 136.386 10.1529 135.936 9.87358C135.491 9.59422 134.965 9.45455 134.359 9.45455C133.692 9.45455 133.114 9.62026 132.626 9.9517C132.143 10.2784 131.772 10.7045 131.511 11.2301C131.251 11.7557 131.121 12.3191 131.121 12.9205V13.8864C131.121 14.7102 131.263 15.4086 131.547 15.9815C131.836 16.5497 132.236 16.983 132.747 17.2812C133.259 17.5748 133.853 17.7216 134.53 17.7216C134.97 17.7216 135.368 17.66 135.723 17.5369C136.083 17.4091 136.393 17.2197 136.653 16.9688C136.914 16.7131 137.115 16.3958 137.257 16.017L138.876 16.4716C138.706 17.0208 138.42 17.5038 138.017 17.9205C137.615 18.3324 137.117 18.6544 136.526 18.8864C135.934 19.1136 135.268 19.2273 134.53 19.2273ZM143.159 15.0227L143.131 12.9489H143.472L148.244 8.09091H150.318L145.233 13.233H145.091L143.159 15.0227ZM141.597 19V4.45455H143.273V19H141.597ZM148.528 19L144.267 13.6023L145.46 12.4375L150.659 19H148.528ZM155.686 19.2557C154.994 19.2557 154.367 19.1255 153.804 18.8651C153.24 18.5999 152.793 18.2188 152.461 17.7216C152.13 17.2197 151.964 16.6136 151.964 15.9034C151.964 15.2784 152.087 14.7718 152.333 14.3835C152.58 13.9905 152.909 13.6828 153.321 13.4602C153.733 13.2377 154.187 13.072 154.684 12.9631C155.186 12.8494 155.69 12.7595 156.197 12.6932C156.86 12.608 157.397 12.544 157.809 12.5014C158.226 12.4541 158.529 12.3759 158.718 12.267C158.913 12.1581 159.01 11.9687 159.01 11.6989V11.642C159.01 10.9413 158.818 10.3968 158.434 10.0085C158.056 9.62027 157.48 9.42614 156.708 9.42614C155.908 9.42614 155.281 9.60133 154.826 9.9517C154.372 10.3021 154.052 10.6761 153.868 11.0739L152.277 10.5057C152.561 9.8428 152.94 9.3267 153.413 8.95739C153.891 8.58333 154.412 8.32292 154.975 8.17614C155.544 8.02462 156.102 7.94886 156.652 7.94886C157.002 7.94886 157.404 7.99148 157.859 8.0767C158.318 8.1572 158.761 8.32528 159.187 8.58097C159.618 8.83665 159.975 9.22254 160.26 9.73864C160.544 10.2547 160.686 10.946 160.686 11.8125V19H159.01V17.5227H158.924C158.811 17.7595 158.621 18.0128 158.356 18.2827C158.091 18.5526 157.738 18.7822 157.298 18.9716C156.858 19.161 156.32 19.2557 155.686 19.2557ZM155.941 17.75C156.604 17.75 157.163 17.6198 157.618 17.3594C158.077 17.099 158.422 16.7628 158.654 16.3509C158.891 15.9389 159.01 15.5057 159.01 15.0511V13.517C158.939 13.6023 158.782 13.6804 158.541 13.7514C158.304 13.8177 158.029 13.8769 157.717 13.929C157.409 13.9763 157.109 14.0189 156.815 14.0568C156.526 14.09 156.292 14.1184 156.112 14.142C155.676 14.1989 155.269 14.2912 154.89 14.419C154.516 14.5421 154.213 14.7292 153.981 14.9801C153.754 15.2263 153.64 15.5625 153.64 15.9886C153.64 16.571 153.856 17.0114 154.287 17.3097C154.722 17.6032 155.274 17.75 155.941 17.75ZM163.745 19V8.09091H165.364V9.73864H165.478C165.677 9.19886 166.037 8.76089 166.558 8.42472C167.078 8.08854 167.665 7.92045 168.319 7.92045C168.442 7.92045 168.596 7.92282 168.781 7.92756C168.965 7.93229 169.105 7.93939 169.2 7.94886V9.65341C169.143 9.6392 169.013 9.6179 168.809 9.58949C168.61 9.55634 168.399 9.53977 168.177 9.53977C167.647 9.53977 167.173 9.65104 166.756 9.87358C166.344 10.0914 166.018 10.3944 165.776 10.7827C165.54 11.1662 165.421 11.6042 165.421 12.0966V19H163.745Z" fill="white"/>
<rect x="169" y="17" width="2" height="2" fill="#FF0000"/>
</svg>
